<svg id="Layer_1" data-name="Layer 1" xmlns="http://www.w3.org/2000/svg" viewBox="0 0 512 512"><defs><style>.cls-1{fill:#141f38;}</style></defs><title>user-plus-glyph</title><path class="cls-1" d="M143.68,254A127,127,0,0,1,108.8,166.4V128a128,128,0,0,1,256,0v38.4A127,127,0,0,1,329.92,254a122.75,122.75,0,0,1-25.6,21c-1.15.77-2.3,1.47-3.52,2.18V303l-64,38.4-64-38.4V277.12c-1.22-.7-2.37-1.41-3.52-2.18A122.75,122.75,0,0,1,143.68,254ZM441.05,466.29A102.23,102.23,0,0,1,311.13,326.6L236.8,371.2l-89.92-54A172.78,172.78,0,0,0,32,480a32,32,0,0,0,32,32H409.6a32,32,0,0,0,32-32C441.6,475.38,441.41,470.81,441.05,466.29ZM403.2,294.4A76.8,76.8,0,1,0,480,371.2,76.89,76.89,0,0,0,403.2,294.4ZM428.8,384H416v12.8a12.8,12.8,0,0,1-25.6,0V384H377.6a12.8,12.8,0,0,1,0-25.6h12.8V345.6a12.8,12.8,0,0,1,25.6,0v12.8h12.8a12.8,12.8,0,0,1,0,25.6Z"/></svg>